HIERARCHY
ROOT Hips
{
     OFFSET -0.22329 98.25860 36.60190
     CHANNELS 6 Xposition Yposition Zposition Zrotation Xrotation Yrotation
     JOINT Spine
     {
          OFFSET -0.00000 11.89050 0.00000
          CHANNELS 3 Zrotation Xrotation Yrotation
          JOINT Spine1
          {
               OFFSET -0.00000 25.65740 0.12766
               CHANNELS 3 Zrotation Xrotation Yrotation
               JOINT HEad
               {
                    OFFSET 0.00000 8.73416 0.01134
                    CHANNELS 3 Zrotation Xrotation Yrotation
                    End Site
                    {
                         OFFSET -0.29000 12.77420 2.51395
                    }
               }
               JOINT LeftShoulder1
               {
                    OFFSET 8.99000 -0.36225 -0.22000
                    CHANNELS 3 Zrotation Xrotation Yrotation
                    JOINT LeftArm
                    {
                         OFFSET 10.28270 -0.00338 0.32212
                         CHANNELS 3 Zrotation Xrotation Yrotation
                         JOINT LeftForeArm
                         {
                              OFFSET 32.76690 0.09914 -1.42434
                              CHANNELS 3 Zrotation Xrotation Yrotation
                              JOINT LeftHand
                              {
                                   OFFSET 27.56430 0.08536 1.02216
                                   CHANNELS 3 Zrotation Xrotation Yrotation
                                   End Site
                                   {
                                        OFFSET 16.74430 -0.60000 1.50291
                                   }
                              }
                         }
                    }
               }
               JOINT RightShoulder
               {
                    OFFSET -8.99000 -0.36225 -0.22000
                    CHANNELS 3 Zrotation Xrotation Yrotation
                    JOINT RightArm
                    {
                         OFFSET -10.28270 -0.00338 0.32212
                         CHANNELS 3 Zrotation Xrotation Yrotation
                         JOINT RightForeArm
                         {
                              OFFSET -32.89710 0.09914 -1.42434
                              CHANNELS 3 Zrotation Xrotation Yrotation
                              JOINT RightHand
                              {
                                   OFFSET -27.49210 0.08536 1.02216
                                   CHANNELS 3 Zrotation Xrotation Yrotation
                                   End Site
                                   {
                                        OFFSET -16.63120 -0.60000 1.50291
                                   }
                              }
                         }
                    }
               }
          }
     }
     JOINT LeftUpLeg
     {
          OFFSET 8.94580 -8.66707 0.10165
          CHANNELS 3 Zrotation Xrotation Yrotation
          JOINT LeftLeg
          {
               OFFSET -0.00000 -44.42270 1.37270
               CHANNELS 3 Zrotation Xrotation Yrotation
               JOINT LeftFoot
               {
                    OFFSET -0.25355 -42.09240 -1.46059
                    CHANNELS 3 Zrotation Xrotation Yrotation
                    JOINT LeftToes
                    {
                         OFFSET -0.04000 -4.41509 8.49910
                         CHANNELS 3 Zrotation Xrotation Yrotation
                         End Site
                         {
                              OFFSET 0.08000 -0.04745 9.77979
                         }
                    }
               }
          }
     }
     JOINT RightUpLeg
     {
          OFFSET -8.94580 -8.66707 0.10165
          CHANNELS 3 Zrotation Xrotation Yrotation
          JOINT RightLeg
          {
               OFFSET 0.00000 -44.42270 1.37270
               CHANNELS 3 Zrotation Xrotation Yrotation
               JOINT RightFoot
               {
                    OFFSET 0.25355 -42.09240 -1.46059
                    CHANNELS 3 Zrotation Xrotation Yrotation
                    JOINT RightToes
                    {
                         OFFSET 0.04000 -4.41509 8.49910
                         CHANNELS 3 Zrotation Xrotation Yrotation
                         End Site
                         {
                              OFFSET -0.08000 -0.13745 9.77979
                         }
                    }
               }
          }
     }
}
MOTION
Frames: 14
Frame Time: 0.01667
92.55900 99.38110 44.68110 -0.52904 -2.93438 -33.52770 3.69809 3.56929 -0.04157 6.29618 7.40775 0.60397 -9.01632 -3.81524 17.65590 -0.00000 -0.00000 0.00000 -101.24400 -42.97840 -100.21300 -30.53470 19.21870 -66.97450 12.15600 7.09739 -23.40960 0.12515 0.47631 5.75393 63.89970 3.86939 99.26460 30.71100 -8.08142 48.06310 -11.92010 6.23096 32.21360 5.30132 -15.34760 -12.49670 -1.35562 18.06150 6.24032 4.10332 1.29904 -0.34448 -0.69166 -2.25748 6.28115 -14.45330 10.01700 -18.01970 -0.53595 25.30420 -1.22334 11.12800 -17.51860 0.74440 0.73692 9.48310 -5.79363 
92.55670 99.37150 44.72520 -0.33684 -2.94312 -33.45020 3.60334 3.51888 -0.06130 6.13432 7.29785 0.55404 -9.27437 -4.01823 18.10070 -0.00000 -0.00000 0.00000 -101.76500 -43.73140 -100.21200 -30.72130 19.83540 -66.94050 12.12890 7.09199 -23.52450 0.68545 0.51736 5.83460 63.80030 4.13834 99.01410 30.92110 -7.88220 48.04070 -11.96070 6.23065 32.09240 5.13587 -15.36270 -12.29440 -1.33094 17.91890 5.85134 4.23785 1.28069 -0.35423 -0.78701 -2.10753 6.56769 -14.60540 9.99321 -17.99270 -0.48119 25.20820 -1.36026 10.72370 -17.28770 0.68756 0.76935 8.66984 -5.85136 
92.44410 99.37030 44.81390 0.09879 -2.97331 -33.52700 3.41222 3.39977 -0.04192 5.77326 7.04946 0.58143 -9.65752 -4.17191 18.72180 -0.00000 -0.00000 0.00000 -102.32000 -44.81500 -100.27500 -30.99880 20.39070 -66.89320 12.08700 7.09989 -23.54840 1.26532 0.56341 5.96754 63.77610 4.58166 98.62860 31.06860 -7.38118 48.07240 -12.08850 6.20490 31.94200 4.83331 -15.30680 -11.90090 -1.27945 17.58910 5.39111 4.33053 1.22563 -0.35908 -0.92969 -1.87688 6.97953 -14.90840 9.93324 -17.98960 -0.57487 24.96040 -1.39563 10.51830 -17.19040 0.66114 0.76127 8.01277 -5.73812 
92.16890 99.37820 44.95550 0.85543 -3.02856 -33.84480 3.11502 3.21226 0.03753 5.16936 6.66470 0.73077 -10.20030 -4.39641 19.50660 -0.00000 -0.00000 0.00000 -102.99700 -46.22690 -100.52800 -31.32990 20.83780 -66.83280 12.08060 7.10751 -23.49080 1.64711 0.60427 6.22318 63.89780 5.09505 98.14180 31.11770 -6.54425 48.20780 -12.29320 6.15056 31.82520 4.36679 -15.15450 -11.29360 -1.20095 17.00410 4.96185 4.33153 1.14391 -0.35559 -1.09949 -1.59287 7.44392 -15.40550 9.78970 -17.97500 -0.83623 24.55720 -1.33091 10.49790 -17.30280 0.66936 0.71770 7.55317 -5.47204 
91.69670 99.39490 45.14510 1.92321 -3.11778 -34.47070 2.72265 2.98256 0.19582 4.33426 6.19648 1.03975 -10.82500 -4.84883 20.42690 -0.00000 -0.00000 0.00000 -103.91000 -47.87060 -101.09400 -31.69260 21.16950 -66.75660 12.21020 7.08432 -23.40610 1.65364 0.62878 6.63597 64.16100 5.53593 97.64800 31.04200 -5.38437 48.50920 -12.55490 6.07277 31.75400 3.77173 -14.88640 -10.54210 -1.11450 16.17010 4.73451 4.08525 0.97180 -0.32949 -1.30269 -1.17297 7.86959 -16.07300 9.53551 -17.93390 -1.26343 24.03010 -1.17259 10.60140 -17.68900 0.71295 0.66098 7.41500 -5.17824 
91.01510 99.42130 45.36670 3.19655 -3.24392 -35.41430 2.26456 2.75296 0.44426 3.34216 5.72750 1.52880 -11.37010 -5.61752 21.45670 -0.00000 -0.00000 0.00000 -105.20700 -49.56370 -102.08000 -32.11800 21.45540 -66.65010 12.60310 6.99232 -23.35800 1.19198 0.62187 7.13796 64.48770 5.78477 97.27630 30.84200 -3.96734 49.03550 -12.85240 5.98424 31.67720 3.15474 -14.50300 -9.80199 -1.05739 15.18040 4.90764 3.33490 0.57113 -0.25885 -1.56961 -0.43833 8.15117 -16.80820 9.16572 -17.93870 -1.84600 23.45510 -0.90265 10.69980 -18.34960 0.78178 0.62016 7.73340 -5.02791 
90.13060 99.45580 45.59610 4.49962 -3.38353 -36.58230 1.78572 2.55927 0.77008 2.31180 5.32703 2.17236 -11.66220 -6.61659 22.55180 -0.00000 -0.00000 0.00000 -106.89500 -51.06470 -103.47800 -32.60410 21.75690 -66.50780 13.32550 6.80944 -23.39350 0.27324 0.56956 7.56297 64.77350 5.77255 97.13290 30.57640 -2.43377 49.80370 -13.15630 5.90274 31.52710 2.67462 -14.04590 -9.25866 -1.07392 14.20410 5.60895 1.88842 -0.17436 -0.13808 -1.91799 0.73925 8.20821 -17.43980 8.68225 -18.16830 -2.58479 22.98550 -0.45785 10.62430 -19.18030 0.84953 0.61839 8.45541 -5.12396 
89.06800 99.48560 45.80280 5.62919 -3.46361 -37.74650 1.35285 2.41212 1.11841 1.39205 5.01764 2.86453 -11.60400 -7.55400 23.59160 -0.00000 -0.00000 0.00000 -108.64700 -52.11200 -105.05200 -33.04020 22.03850 -66.35770 14.31680 6.54771 -23.51730 -0.95881 0.47448 7.73010 64.92820 5.44825 97.25040 30.38030 -0.96760 50.74070 -13.42820 5.84345 31.28710 2.51940 -13.62090 -9.09158 -1.24047 13.45190 6.82881 -0.09660 -1.19259 -0.00296 -2.28486 2.18455 8.01714 -17.75760 8.06413 -18.85000 -3.51511 22.88940 0.27229 10.27470 -19.98240 0.88331 0.66632 9.20931 -5.44373 
87.86650 99.49080 45.95620 6.41495 -3.38807 -38.56850 1.04121 2.30422 1.39357 0.73115 4.79130 3.42120 -11.18480 -8.03431 24.36400 -0.00000 -0.00000 0.00000 -109.91700 -52.49020 -106.41900 -33.24900 22.22830 -66.24440 15.41460 6.25017 -23.68530 -2.22194 0.36392 7.51426 64.88430 4.75414 97.59460 30.45190 0.28748 51.67920 -13.64310 5.80657 31.02360 2.83978 -13.37860 -9.45203 -1.66322 13.11720 8.43358 -2.11405 -2.20059 0.09865 -2.51504 3.39794 7.55690 -17.60530 7.26331 -20.12470 -4.69845 23.52820 1.40367 9.72935 -20.50800 0.86606 0.75741 9.41286 -5.87793 
86.56920 99.45310 46.03480 6.76172 -3.12211 -38.70330 0.90128 2.24172 1.48543 0.42539 4.66897 3.63376 -10.41660 -7.74638 24.63670 -0.00000 -0.00000 0.00000 -110.24300 -52.09780 -107.29900 -33.06080 22.31330 -66.19840 16.43680 5.97073 -23.83100 -3.19964 0.27398 6.85444 64.61230 3.66726 98.12790 30.96710 1.26754 52.44410 -13.80480 5.77999 30.82130 3.64964 -13.44200 -10.38720 -2.38856 13.33210 10.19870 -3.69979 -2.91222 0.15577 -2.46011 3.91131 6.75557 -17.00720 6.23572 -21.89470 -6.15044 25.27150 2.97360 9.20415 -20.48670 0.80347 0.87077 8.51334 -6.30547 
85.21670 99.35280 46.02750 6.63796 -2.74238 -37.93600 0.94823 2.26143 1.30949 0.50203 4.73098 3.34675 -9.31066 -6.58827 24.25520 -0.00000 -0.00000 0.00000 -109.42500 -50.98630 -107.65900 -32.35450 22.29880 -66.22690 17.22680 5.76030 -23.89130 -3.71778 0.22234 5.73100 64.16680 2.27046 98.85880 31.93800 1.95170 52.94980 -13.92180 5.75714 30.70650 4.80612 -13.84420 -11.75290 -3.31901 14.16650 11.80540 -4.69357 -3.22226 0.18629 -2.08091 3.55963 5.57760 -16.19300 4.96951 -23.78990 -7.76213 28.40240 4.89912 8.94558 -19.66040 0.71130 0.96436 6.28472 -6.55244 
83.84430 99.15880 45.93030 6.05057 -2.40443 -36.27420 1.17382 2.41433 0.84062 0.94638 5.08111 2.51432 -7.92088 -4.68172 23.21670 -0.00000 -0.00000 0.00000 -107.49900 -49.36500 -107.66800 -31.10840 22.13730 -66.31620 17.68770 5.65535 -23.80960 -3.82315 0.19924 4.13705 63.68550 0.78089 99.85340 33.17050 2.29196 53.20560 -13.97300 5.74696 30.65840 6.10038 -14.51090 -13.24250 -4.23416 15.63700 12.86640 -5.14998 -3.21367 0.20438 -1.45095 2.41233 4.13328 -15.48160 3.49957 -25.32710 -9.30354 33.01160 7.07598 9.16705 -17.85530 0.59638 0.98018 3.16269 -6.31013 
82.47690 98.83200 45.74920 5.04909 -2.27909 -33.94060 1.54403 2.73939 0.11870 1.72568 5.78981 1.19845 -6.38781 -2.33065 21.69510 -0.00000 -0.00000 0.00000 -104.70400 -47.57060 -107.57900 -29.47220 21.79420 -66.42200 17.88300 5.64388 -23.56920 -3.70278 0.18253 2.08348 63.32160 -0.51732 101.20200 34.39720 2.20037 53.26120 -13.90500 5.77162 30.63450 7.36821 -15.27740 -14.56220 -4.89967 17.68620 13.08520 -5.25926 -3.11885 0.21243 -0.70966 0.71757 2.63042 -15.13860 1.91675 -26.17140 -10.52430 38.89650 9.57907 9.93907 -15.03630 0.43239 0.89157 0.39961 -5.31886 
81.12400 98.34190 45.50670 3.73695 -2.48281 -31.28350 1.99813 3.24224 -0.77239 2.80545 6.84777 -0.47647 -4.93020 0.06851 19.99530 -0.00000 -0.00000 0.00000 -101.47300 -46.01170 -107.60900 -27.78700 21.37150 -66.46390 18.06020 5.65061 -23.24930 -3.55982 0.15709 -0.35596 63.18710 -1.38998 102.95000 35.45050 1.59917 53.14820 -13.62550 5.86788 30.57420 8.55101 -15.95340 -15.59360 -5.18267 20.15840 12.43430 -5.32133 -3.24247 0.20990 0.00411 -1.13581 1.22214 -15.29890 0.34592 -26.28820 -11.29110 45.55990 12.75180 11.10590 -11.33540 0.16588 0.72461 -0.34258 -3.97300 
